# AST/ASF file generated using VICON BodyLanguage
# -----------------------------------------------
:version 1.10
:name VICON
:units
  mass 1.0
  length 0.45
  angle deg
:documentation
   .ast/.asf automatically generated from VICON data using
   VICON BodyBuilder and BodyLanguage model FoxedUp or BRILLIANT.MOD
:root
   order TX TY TZ RX RY RZ
   axis XYZ
   position 0 0 0  
   orientation 0 0 0 
:bonedata
  begin
     id 1 
     name lhipjoint
     direction 0.630082 -0.636569 0.44472 
     length 2.82754 
     axis 0 0 0  XYZ
  end
  begin
     id 2 
     name lfemur
     direction 0.34202 -0.939693 0  
     length 7.26371  
     axis 0 0 20  XYZ
    dof rx ry rz
    limits (-160.0 20.0)
           (-70.0 70.0)
           (-60.0 70.0)
  end
  begin
     id 3 
     name ltibia
     direction 0.34202 -0.939693 0   
     length 7.88616   
     axis 0 0 20   XYZ
    dof rx
    limits (-10.0 170.0)
  end
  begin
     id 4 
     name lfoot
     direction 0.0603448 -0.165796 0.984312   
     length 1.77861   
     axis -90 7.62852e-016 20   XYZ
    dof rx rz
    limits (-45.0 90.0)
           (-70.0 20.0)
  end
  begin
     id 5 
     name ltoes
     direction 1.53577e-011 -4.21876e-011 1   
     length 0.902235   
     axis -90 7.62852e-016 20   XYZ
    dof rx
    limits (-90.0 20.0)
  end
  begin
     id 6 
     name rhipjoint
     direction -0.656778 -0.61817 0.431866   
     length 2.9117  
     axis 0 0 0  XYZ 
  end
  begin
     id 7 
     name rfemur
     direction -0.34202 -0.939693 0   
     length 6.81603   
     axis 0 0 -20   XYZ
    dof rx ry rz
    limits (-160.0 20.0)
           (-70.0 70.0)
           (-70.0 60.0)
  end
  begin
     id 8 
     name rtibia
     direction -0.34202 -0.939693 0   
     length 8.05997   
     axis 0 0 -20   XYZ
    dof rx
    limits (-10.0 170.0)
 end
 begin
     id 9 
     name rfoot
     direction -0.0862404 -0.236944 0.967688   
     length 1.84899  
     axis -90 -7.62852e-016 -20   XYZ
    dof rx rz
    limits (-45.0 90.0)
           (-20.0 70.0)
  end
  begin
     id 10 
     name rtoes
     direction -1.53561e-011 -4.21798e-011 1   
     length 0.931579   
     axis -90 -7.62852e-016 -20   XYZ
    dof rx
    limits (-90.0 20.0)
  end
  begin
     id 11 
     name lowerback
     direction -0.0110203 0.991769 -0.127564   
     length 2.05686   
     axis 0 0 0   XYZ
    dof rx ry rz
    limits (-20.0 45.0)
           (-30.0 30.0)
           (-30.0 30.0)
  end
  begin
     id 12 
     name upperback
     direction 0.0109719 0.99993 -0.00432479   
     length 2.06234   
     axis 0 0 0   XYZ
    dof rx ry rz
    limits (-20.0 45.0)
           (-30.0 30.0)
           (-30.0 30.0)
  end
  begin
     id 13 
     name thorax
     direction 0.0173308 0.998351 0.0547306   
     length 2.09856   
     axis 0 0 0   XYZ
    dof rx ry rz
    limits (-20.0 45.0)
           (-30.0 30.0)
           (-30.0 30.0)
  end
  begin
     id 14 
     name lowerneck
     direction -0.0311736 0.989033 0.144366   
     length 1.98151   
     axis 0 0 0   XYZ
    dof rx ry rz
    limits (-20.0 45.0)
           (-30.0 30.0)
           (-30.0 30.0)
  end
  begin
     id 15 
     name upperneck
     direction 0.0421057 0.975772 -0.214698   
     length 2.01457   
     axis 0 0 0   XYZ
    dof rx ry rz
    limits (-20.0 45.0)
           (-30.0 30.0)
           (-30.0 30.0)
  end
  begin
     id 16
     name head
     direction 0.0136911 0.995958 -0.0887718  
     length 2.03562  
     axis 0 0 0   XYZ
    dof rx ry rz
    limits (-20.0 45.0)
           (-30.0 30.0)
           (-30.0 30.0)
  end
  begin
     id 17 
     name lclavicle
     direction 0.915335 0.396201 0.0720134  
     length 4.16217  
     axis 0 0 0   XYZ
    dof ry rz
    limits (-20.0 10.0)
           (0.0 20.0)
  end
  begin
     id 18 
     name lhumerus
     direction 1 -4.48965e-011 6.383e-018   
     length 4.93042   
     axis -180 -30 -90   XYZ
    dof rx ry rz
    limits (-60.0 90.0)
           (-90.0 90.0)
           (-90.0 90.0)
  end
  begin
     id 19
     name lradius
     direction 1 -4.48972e-011 8.8689e-027   
     length 3.68177   
     axis -180 -30 -90   XYZ
    dof rx
    limits (-10.0 170.0)
  end
  begin
     id 20
     name lwrist
     direction 1 -4.48953e-011 1.17971e-026   
     length 1.84089   
     axis -7.69454e-015 90 90   XYZ
    dof ry
    limits (-180.0 0.0)
 end
  begin
     id 21 
     name lhand
     direction 1 -4.49027e-011 2.35802e-026   
     length 0.721479   
     axis -1.50533e-014 90 90   XYZ
    dof rx rz
    limits (-90.0 90.0)
           (-45.0 45.0)
  end
  begin
     id 22 
     name lfingers
     direction 1 -4.48915e-011 4.72027e-026   
     length 0.581675   
     axis -3.01059e-014 90 90   XYZ
    dof rx
    limits (0.0 90.0)
  end
  begin
     id 23
     name lthumb
     direction 0.707107 -6.34948e-011 0.707107   
     length 0.835172   
     axis -90 45 -5.12164e-014   XYZ
    dof rx rz
    limits (-45.0 45.0)
           (-45.0 45.0)
  end
  begin
     id 24 
     name rclavicle
     direction -0.882781 0.469197 0.0234974   
     length 3.95647  
     axis 0 0 0   XYZ 
    dof ry rz
    limits (-10.0 20.0)
           (-20.0 0.0)
  end
  begin
     id 25 
     name rhumerus
     direction -1 -4.48965e-011 -1.54906e-018  
     length 5.07905   
     axis -180 30 90   XYZ
    dof rx ry rz
    limits (-90.0 60.0)
           (-90.0 90.0)
           (-90.0 90.0)
  end
  begin
     id 26 
     name rradius
     direction -1 -4.48972e-011 5.47489e-027   
     length 3.54394   
     axis -180 30 90   XYZ
    dof rx
    limits (-10.0 170.0)
  end
  begin
     id 27 
     name rwrist
     direction -1 -4.48955e-011 1.17969e-026   
     length 1.77197   
     axis -7.69454e-015 -90 -90   XYZ
    dof ry
    limits (-180.0 0.0)
  end
  begin
     id 28
     name rhand
     direction -1 -4.48982e-011 2.35888e-026   
     length 0.681156   
     axis -1.50533e-014 -90 -90   XYZ
    dof rx rz
    limits (-90.0 90.0)
           (-45.0 45.0)
  end
  begin
     id 29
     name rfingers
     direction -1 -4.48955e-011 4.71877e-026   
     length 0.549165   
     axis -3.01059e-014 -90 -90   XYZ
    dof rx
    limits (0.0 90.0)
  end
  begin
     id 30
     name rthumb
     direction -0.707107 -6.3491e-011 0.707107   
     length 0.788495   
     axis -90 -45 5.12164e-014   XYZ
    dof rx rz
    limits (-45.0 45.0)
           (-45.0 45.0)
  end
:hierarchy
  begin
    root lhipjoint rhipjoint lowerback
    lhipjoint lfemur
    lfemur ltibia
    ltibia lfoot
    lfoot ltoes
    rhipjoint rfemur
    rfemur rtibia
    rtibia rfoot
    rfoot rtoes
    lowerback upperback
    upperback thorax
    thorax lowerneck lclavicle rclavicle
    lowerneck upperneck
    upperneck head
    lclavicle lhumerus
    lhumerus lradius
    lradius lwrist
    lwrist lhand lthumb
    lhand lfingers
    rclavicle rhumerus
    rhumerus rradius
    rradius rwrist
    rwrist rhand rthumb
    rhand rfingers
  end

#!OML:ASF H:\Bending\Project 1\Capture day 1\Session 1\Subject.ASF
:FULLY-SPECIFIED
:DEGREES
48
root -10.2849 18.0539 -16.4751 -152.445 87.2783 -157.415
lowerback 8.33834 0.0390827 0.443818
upperback -1.5601 0.237465 1.97493
thorax -6.32467 0.146448 1.78389
lowerneck -24.8081 -3.64278 -5.38506
upperneck 33.4438 -2.93645 1.29271
head 16.266 -1.51231 0.935082
rclavicle 1.49089e-015 -9.93923e-015
rhumerus -39.7046 -12.0186 -69.6665
rradius 29.6542
rwrist 11.3099
rhand -18.7405 -19.8351
rfingers 7.12502
rthumb 7.55563 -49.6801
lclavicle 1.49089e-015 -9.93923e-015
lhumerus -36.7049 9.57719 84.0236
lradius 28.0107
lwrist 15.2866
lhand -32.5319 8.61127
lfingers 7.12502
lthumb -5.76233 38.5129
rfemur 2.41449 -7.96743 15.3268
rtibia 4.77083e-015
rfoot -6.65505 -16.7189
rtoes -0.208442
lfemur -11.82 -15.322 -11.801
ltibia 21.0978
lfoot -19.6926 17.2352
ltoes -35.1204
49
root -10.2944 18.0544 -16.4581 -153.245 87.3042 -158.166
lowerback 8.44529 -0.00310674 0.330951
upperback -1.49753 0.171132 1.99839
thorax -6.31818 0.118268 1.88128
lowerneck -24.873 -3.55552 -5.20463
upperneck 33.5786 -2.81506 1.13736
head 16.3349 -1.46072 0.862651
rclavicle -2.03754e-015 1.39149e-014
rhumerus -39.1839 -11.5503 -70.1886
rradius 29.9877
rwrist 10.9409
rhand -18.8565 -19.8677
rfingers 7.12502
rthumb 7.44368 -49.7168
lclavicle -2.03754e-015 1.39149e-014
lhumerus -36.3094 8.80123 84.6225
lradius 28.7032
lwrist 15.7282
lhand -32.4486 8.5155
lfingers 7.12502
lthumb -5.68188 38.4193
rfemur 2.40592 -7.95477 15.3437
rtibia -8.74653e-015
rfoot -6.51873 -16.7574
rtoes -0.704563
lfemur -11.7423 -15.2499 -11.7966
ltibia 20.9772
lfoot -19.5819 17.2019
ltoes -35.2733
50
root -10.3041 18.0545 -16.4416 -153.925 87.3231 -158.79
lowerback 8.56475 -0.0511267 0.24158
upperback -1.43826 0.0997061 2.0213
thorax -6.32176 0.0867626 1.96583
lowerneck -24.9326 -3.46314 -5.02229
upperneck 33.7332 -2.68384 0.977809
head 16.4128 -1.40514 0.790194
rclavicle -4.62174e-015 -1.27222e-014
rhumerus -38.6954 -10.7463 -70.8767
rradius 30.4907
rwrist 10.3044
rhand -18.9405 -20.1259
rfingers 7.12502
rthumb 7.36259 -49.9778
lclavicle -4.62174e-015 -1.27222e-014
lhumerus -35.9018 8.02195 85.1921
lradius 29.3365
lwrist 16.057
lhand -32.2156 8.35485
lfingers 7.12502
lthumb -5.45691 38.2646
rfemur 2.40654 -7.94456 15.3682
rtibia -9.54166e-015
rfoot -6.40012 -16.7857
rtoes -1.16309
lfemur -11.6654 -15.2285 -11.7831
ltibia 20.8661
lfoot -19.5246 17.1857
ltoes -35.1879
51
root -10.314 18.0539 -16.4264 -154.452 87.3511 -159.257
lowerback 8.6972 -0.0829209 0.202138
upperback -1.38439 0.0546241 2.02984
thorax -6.33896 0.0661701 2.00381
lowerneck -24.9828 -3.39557 -4.88972
upperneck 33.9036 -2.58667 0.870086
head 16.501 -1.36181 0.741853
rclavicle -1.39149e-015 -1.07344e-014
rhumerus -38.2467 -9.93643 -71.5558
rradius 31.0445
rwrist 9.69359
rhand -18.9863 -20.4964
rfingers 7.12502
rthumb 7.31836 -50.3499
lclavicle -1.39149e-015 -1.07344e-014
lhumerus -35.4728 7.17611 85.7529
lradius 29.892
lwrist 16.2564
lhand -31.8026 8.11097
lfingers 7.12502
lthumb -5.05808 38.0306
rfemur 2.40949 -7.92236 15.3901
rtibia 7.95139e-016
rfoot -6.28683 -16.8026
rtoes -1.56057
lfemur -11.5872 -15.2718 -11.7699
ltibia 20.769
lfoot -19.5372 17.1977
ltoes -34.763
52
root -10.3242 18.0524 -16.4131 -154.811 87.4044 -159.554
lowerback 8.84336 -0.0836768 0.221203
upperback -1.33652 0.0563036 2.01769
thorax -6.37168 0.0660991 1.98071
lowerneck -25.0218 -3.37161 -4.84053
upperneck 34.0818 -2.54993 0.846184
head 16.5971 -1.34121 0.731955
rclavicle -6.80837e-015 -1.27222e-014
rhumerus -37.7906 -9.57643 -72.0186
rradius 31.4461
rwrist 9.53525
rhand -18.9736 -20.7308
rfingers 7.12502
rthumb 7.33065 -50.5838
lclavicle -6.80837e-015 -1.27222e-014
lhumerus -35.0217 6.23446 86.3172
lradius 30.3622
lwrist 16.3179
lhand -31.2298 7.76696
lfingers 7.12502
lthumb -4.50507 37.6991
rfemur 2.40762 -7.87398 15.4005
rtibia -3.97569e-015
rfoot -6.16976 -16.8101
rtoes -1.87631
lfemur -11.5064 -15.362 -11.7661
ltibia 20.6884
lfoot -19.6055 17.2417
ltoes -34.079
53
root -10.335 18.0503 -16.4016 -154.939 87.4892 -159.626
lowerback 9.00148 -0.0530402 0.289146
upperback -1.29422 0.10468 1.99005
thorax -6.41842 0.0869547 1.90717
lowerneck -25.0481 -3.39043 -4.87634
upperneck 34.2559 -2.57027 0.900124
head 16.6944 -1.34328 0.759017
rclavicle -3.67752e-015 -9.54166e-015
rhumerus -37.2599 -10.0176 -72.1289
rradius 31.5178
rwrist 10.1712
rhand -18.8865 -20.576
rfingers 7.12502
rthumb 7.41475 -50.426
lclavicle -3.67752e-015 -9.54166e-015
lhumerus -34.555 5.20731 86.8894
lradius 30.7541
lwrist 16.2624
lhand -30.5711 7.3184
lfingers 7.12502
lthumb -3.86896 37.263
rfemur 2.39256 -7.79315 15.4007
rtibia -1.51076e-014
rfoot -6.04679 -16.812
rtoes -2.10883
lfemur -11.4281 -15.4585 -11.7712
ltibia 20.6237
lfoot -19.6908 17.3137
ltoes -33.3701
54
root -10.3468 18.0486 -16.3915 -154.705 87.5992 -159.35
lowerback 9.16429 -0.00438223 0.384986
upperback -1.25697 0.180658 1.96135
thorax -6.47374 0.12038 1.81261
lowerneck -25.0599 -3.43302 -4.96897
upperneck 34.412 -2.61812 0.994431
head 16.7831 -1.3582 0.808022
rclavicle 8.84592e-015 2.42517e-014
rhumerus -36.6289 -11.3152 -71.8894
rradius 31.2261
rwrist 11.67
rhand -18.7348 -19.9249
rfingers 7.12502
rthumb 7.56117 -49.7698
lclavicle 8.84592e-015 2.42517e-014
lhumerus -34.0816 4.12458 87.4719
lradius 31.0857
lwrist 16.153
lhand -29.9318 6.78348
lfingers 7.12502
lthumb -3.25157 36.7384
rfemur 2.35274 -7.68456 15.4026
rtibia 2.38542e-015
rfoot -5.92416 -16.8106
rtoes -2.2744
lfemur -11.3673 -15.5162 -11.7729
ltibia 20.5725
lfoot -19.747 17.4024
ltoes -32.9102
55
root -10.3602 18.0481 -16.3818 -153.899 87.7174 -158.529
lowerback 9.31942 0.042431 0.489196
upperback -1.22463 0.256671 1.94859
thorax -6.5296 0.153893 1.72976
lowerneck -25.0549 -3.47207 -5.07457
upperneck 34.5367 -2.6536 1.0797
head 16.8519 -1.37168 0.85798
rclavicle 4.02539e-015 1.23246e-014
rhumerus -35.9356 -13.1307 -71.4641
rradius 30.7293
rwrist 13.7164
rhand -18.5589 -18.9026
rfingers 7.12502
rthumb 7.73088 -48.7413
lclavicle 4.02539e-015 1.23246e-014
lhumerus -33.6072 3.0073 88.0694
lradius 31.3781
lwrist 16.0868
lhand -29.411 6.20605
lfingers 7.12502
lthumb -2.74863 36.1681
rfemur 2.27348 -7.56165 15.4254
rtibia -1.11319e-014
rfoot -5.81305 -16.8056
rtoes -2.39863
lfemur -11.3478 -15.5013 -11.7501
ltibia 20.5325
lfoot -19.7411 17.4889
ltoes -32.8687
56
root -10.3754 18.0498 -16.3722 -152.335 87.8239 -156.99
lowerback 9.45398 0.070892 0.592655
upperback -1.19746 0.310294 1.96288
thorax -6.57856 0.17708 1.67876
lowerneck -25.0314 -3.48527 -5.15355
upperneck 34.6193 -2.64672 1.11817
head 16.8916 -1.37217 0.891514
rclavicle 1.2424e-015 5.1684e-015
rhumerus -35.2389 -14.7709 -71.1501
rradius 30.3107
rwrist 15.6287
rhand -18.4114 -17.8369
rfingers 7.12502
rthumb 7.87331 -47.6703
lclavicle 1.2424e-015 5.1684e-015
lhumerus -33.1299 1.85178 88.6887
lradius 31.6435
lwrist 16.1584
lhand -29.0643 5.64653
lfingers 7.12502
lthumb -2.41385 35.6126
rfemur 2.13946 -7.44084 15.4849
rtibia 1.59028e-015
rfoot -5.72423 -16.7942
rtoes -2.49779
lfemur -11.3949 -15.3957 -11.684
ltibia 20.5042
lfoot -19.6656 17.5429
ltoes -33.207
57
root -10.3926 18.0534 -16.3626 -150.048 87.9048 -154.778
lowerback 9.56221 0.0750243 0.697217
upperback -1.17544 0.333587 2.0034
thorax -6.6173 0.185985 1.6591
lowerneck -24.9894 -3.46506 -5.18616
upperneck 34.6527 -2.59149 1.0995
head 16.8971 -1.35621 0.901686
rclavicle 8.29926e-015 -9.93923e-015
rhumerus -34.5711 -15.4402 -71.2614
rradius 30.2429
rwrist 16.5994
rhand -18.3298 -17.1187
rfingers 7.12502
rthumb 7.95208 -46.9492
lclavicle 8.29926e-015 -9.93923e-015
lhumerus -32.6387 0.637477 89.3318
lradius 31.8755
lwrist 16.4139
lhand -28.8873 5.16432
lfingers 7.12502
lthumb -2.24289 35.1323
rfemur 1.9397 -7.33497 15.5825
rtibia 3.97569e-015
rfoot -5.66225 -16.7733
rtoes -2.56764
lfemur -11.5275 -15.1908 -11.5702
ltibia 20.4938
lfoot -19.5395 17.5198
ltoes -33.6933
58
root -10.412 18.0578 -16.3537 -147.435 87.9597 -152.286
lowerback 9.65336 0.0609101 0.808172
upperback -1.15712 0.334386 2.05692
thorax -6.64973 0.183953 1.65286
lowerneck -24.9317 -3.42061 -5.17734
upperneck 34.6343 -2.50699 1.04184
head 16.8692 -1.3294 0.893193
rclavicle 0 2.78299e-015
rhumerus -33.9616 -14.663 -71.9417
rradius 30.6751
rwrist 16.1311
rhand -18.3236 -17.0199
rfingers 7.12502
rthumb 7.95799 -46.8501
lclavicle 0 2.78299e-015
lhumerus -32.1143 -0.647528 89.9886
lradius 32.0455
lwrist 16.8178
lhand -28.8238 4.80014
lfingers 7.12502
lthumb -2.18153 34.7687
rfemur 1.67345 -7.24937 15.6994
rtibia -3.18055e-015
rfoot -5.62202 -16.7425
rtoes -2.5879
lfemur -11.7509 -14.8757 -11.4272
ltibia 20.5132
lfoot -19.3955 17.3648
ltoes -34.0289
59
root -10.4342 18.0612 -16.346 -145.185 88.0048 -150.189
lowerback 9.75454 0.0424567 0.923607
upperback -1.13849 0.329869 2.10288
thorax -6.68736 0.178968 1.63703
lowerneck -24.8657 -3.37142 -5.1496
upperneck 34.5659 -2.42613 0.979583
head 16.8132 -1.30283 0.878101
rclavicle 3.8763e-015 -2.38542e-015
rhumerus -33.4676 -12.5882 -73.0587
rradius 31.5844
rwrist 14.3588
rhand -18.376 -17.5626
rfingers 7.12502
rthumb 7.90747 -47.3947
lclavicle 3.8763e-015 -2.38542e-015
lhumerus -31.5321 -1.98166 90.6359
lradius 32.1086
lwrist 17.2581
lhand -28.7947 4.56504
lfingers 7.12502
lthumb -2.15346 34.5339
rfemur 1.3541 -7.18098 15.7992
rtibia -1.59028e-015
rfoot -5.58907 -16.7051
rtoes -2.54311
lfemur -12.0539 -14.4301 -11.294
ltibia 20.5795
lfoot -19.2645 17.021
ltoes -33.9861
60
root -10.4597 18.0616 -16.3399 -144.002 88.0675 -149.165
lowerback 9.90576 0.0343578 1.02947
upperback -1.11278 0.337205 2.12189
thorax -6.74605 0.179443 1.59659
lowerneck -24.8021 -3.33693 -5.12874
upperneck 34.4529 -2.37848 0.944163
head 16.737 -1.28721 0.868452
rclavicle 5.96354e-016 1.19271e-014
rhumerus -33.1081 -9.90071 -74.3062
rradius 32.7693
rwrist 11.9641
rhand -18.4484 -18.5066
rfingers 7.12502
rthumb 7.83761 -48.3413
lclavicle 5.96354e-016 1.19271e-014
lhumerus -30.867 -3.3022 91.2439
lradius 32.0179
lwrist 17.5869
lhand -28.7309 4.43928
lfingers 7.12502
lthumb -2.09178 34.4088
rfemur 1.00777 -7.12018 15.8408
rtibia 9.54166e-015
rfoot -5.54511 -16.667
rtoes -2.43702
lfemur -12.4123 -13.8271 -11.2173
ltibia 20.7115
lfoot -19.1637 16.4429
ltoes -33.486
61
root -10.4892 18.0571 -16.3352 -144.388 88.1742 -149.686
lowerback 10.149 0.0462347 1.10341
upperback -1.07116 0.366524 2.10353
thorax -6.8405 0.190869 1.53156
lowerneck -24.7513 -3.32722 -5.13072
upperneck 34.3013 -2.37683 0.949951
head 16.6476 -1.28778 0.870566
rclavicle 9.93923e-016 1.27222e-014
rhumerus -32.7908 -7.41196 -75.4038
rradius 33.905
rwrist 9.76589
rhand -18.4914 -19.464
rfingers 7.12502
rthumb 7.7961 -49.3003
lclavicle 9.93923e-016 1.27222e-014
lhumerus -30.0987 -4.51983 91.7866
lradius 31.7426
lwrist 17.6812
lhand -28.5952 4.38006
lfingers 7.12502
lthumb -1.96072 34.3508
rfemur -0.0359031 -7.05102 15.8328
rtibia 1.28929
rfoot -6.09017 -16.6744
rtoes -2.29668
lfemur -12.7976 -13.0442 -11.2323
ltibia 20.9269
lfoot -19.0964 15.608
ltoes -32.5897
